<?xml version="1.0" encoding="UTF-8"?>
<svg width="600" height="200" xmlns="http://www.w3.org/2000/svg">
  <defs>
    <marker id="arrow" markerWidth="10" markerHeight="10" refX="10" refY="5" orient="auto">
      <path d="M0,0 L10,5 L0,10 Z" fill="#1a1a2e"/>
    </marker>
  </defs>
  <rect x="10" y="10" width="100" height="50" fill="#00c4b4" rx="5"/>
  <text x="60"  y="40" fill="#fff" text-anchor="middle" font-family="sans-serif">User</text>

  <rect x="150" y="10" width="100" height="50" fill="#1e90ff" rx="5"/>
  <text x="200" y="40" fill="#fff" text-anchor="middle" font-family="sans-serif">App</text>

  <rect x="290" y="10" width="100" height="50" fill="#ff6f61" rx="5"/>
  <text x="340" y="40" fill="#fff" text-anchor="middle" font-family="sans-serif">IDP</text>

  <rect x="430" y="10" width="100" height="50" fill="#1e90ff" rx="5"/>
  <text x="480" y="40" fill="#fff" text-anchor="middle" font-family="sans-serif">App</text>

  <rect x="150" y="130" width="100" height="50" fill="#00c4b4" rx="5"/>
  <text x="200" y="160" fill="#fff" text-anchor="middle" font-family="sans-serif">Logged In</text>

  <path d="M110 35 H150" stroke="#1a1a2e" stroke-width="2" fill="none" marker-end="url(#arrow)"/>
  <text x="130" y="55" fill="#1a1a2e" font-size="12" font-family="sans-serif">Access</text>

  <path d="M250 35 H290" stroke="#1a1a2e" stroke-width="2" fill="none" marker-end="url(#arrow)"/>
  <text x="270" y="55" fill="#1a1a2e" font-size="12" font-family="sans-serif">Redirect</text>

  <path d="M390 35 H430" stroke="#1a1a2e" stroke-width="2" fill="none" marker-end="url(#arrow)"/>
  <text x="410" y="55" fill="#1a1a2e" font-size="12" font-family="sans-serif">SAML Assertion</text>

  <path d="M480 60 V130 H250" stroke="#1a1a2e" stroke-width="2" fill="none" marker-end="url(#arrow)"/>
  <text x="350" y="110" fill="#1a1a2e" font-size="12" font-family="sans-serif">Validate &amp; Login</text>
</svg>